<svg xmlns="http://www.w3.org/2000/svg" viewBox="0 0 900 280" width="900" height="280">
  <defs>
    <!-- Background gradient: very dark, almost black -->
    <linearGradient id="bgGrad" x1="0%" y1="0%" x2="100%" y2="100%">
      <stop offset="0%" style="stop-color:#0a0a0a;stop-opacity:1" />
      <stop offset="100%" style="stop-color:#1a1a1a;stop-opacity:1" />
    </linearGradient>

    <!-- Glow filter for text -->
    <filter id="glow" x="-20%" y="-20%" width="140%" height="140%">
      <feGaussianBlur stdDeviation="3" result="coloredBlur"/>
      <feMerge>
        <feMergeNode in="coloredBlur"/>
        <feMergeNode in="SourceGraphic"/>
      </feMerge>
    </filter>

    <!-- Subtle noise texture -->
    <filter id="noise">
      <feTurbulence type="fractalNoise" baseFrequency="0.65" numOctaves="3" stitchTiles="stitch"/>
      <feColorMatrix type="saturate" values="0"/>
      <feBlend in="SourceGraphic" mode="overlay" result="blend"/>
      <feComposite in="blend" in2="SourceGraphic" operator="in"/>
    </filter>

    <!-- Clip path -->
    <clipPath id="rounded">
      <rect width="900" height="280" rx="16" ry="16"/>
    </clipPath>
  </defs>

  <!-- Background -->
  <rect width="900" height="280" rx="16" ry="16" fill="url(#bgGrad)"/>

  <!-- Scanline effect (horizontal lines) -->
  <g clip-path="url(#rounded)" opacity="0.04">
    <rect x="0" y="0" width="900" height="1" fill="white"/>
    <rect x="0" y="4" width="900" height="1" fill="white"/>
    <rect x="0" y="8" width="900" height="1" fill="white"/>
    <rect x="0" y="12" width="900" height="1" fill="white"/>
    <rect x="0" y="16" width="900" height="1" fill="white"/>
    <rect x="0" y="20" width="900" height="1" fill="white"/>
    <rect x="0" y="24" width="900" height="1" fill="white"/>
    <rect x="0" y="28" width="900" height="1" fill="white"/>
    <rect x="0" y="32" width="900" height="1" fill="white"/>
    <rect x="0" y="36" width="900" height="1" fill="white"/>
    <rect x="0" y="40" width="900" height="1" fill="white"/>
    <rect x="0" y="44" width="900" height="1" fill="white"/>
    <rect x="0" y="48" width="900" height="1" fill="white"/>
    <rect x="0" y="52" width="900" height="1" fill="white"/>
    <rect x="0" y="56" width="900" height="1" fill="white"/>
    <rect x="0" y="60" width="900" height="1" fill="white"/>
    <rect x="0" y="64" width="900" height="1" fill="white"/>
    <rect x="0" y="68" width="900" height="1" fill="white"/>
    <rect x="0" y="72" width="900" height="1" fill="white"/>
    <rect x="0" y="76" width="900" height="1" fill="white"/>
    <rect x="0" y="80" width="900" height="1" fill="white"/>
    <rect x="0" y="84" width="900" height="1" fill="white"/>
    <rect x="0" y="88" width="900" height="1" fill="white"/>
    <rect x="0" y="92" width="900" height="1" fill="white"/>
    <rect x="0" y="96" width="900" height="1" fill="white"/>
    <rect x="0" y="100" width="900" height="1" fill="white"/>
    <rect x="0" y="104" width="900" height="1" fill="white"/>
    <rect x="0" y="108" width="900" height="1" fill="white"/>
    <rect x="0" y="112" width="900" height="1" fill="white"/>
    <rect x="0" y="116" width="900" height="1" fill="white"/>
    <rect x="0" y="120" width="900" height="1" fill="white"/>
    <rect x="0" y="124" width="900" height="1" fill="white"/>
    <rect x="0" y="128" width="900" height="1" fill="white"/>
    <rect x="0" y="132" width="900" height="1" fill="white"/>
    <rect x="0" y="136" width="900" height="1" fill="white"/>
    <rect x="0" y="140" width="900" height="1" fill="white"/>
    <rect x="0" y="144" width="900" height="1" fill="white"/>
    <rect x="0" y="148" width="900" height="1" fill="white"/>
    <rect x="0" y="152" width="900" height="1" fill="white"/>
    <rect x="0" y="156" width="900" height="1" fill="white"/>
    <rect x="0" y="160" width="900" height="1" fill="white"/>
    <rect x="0" y="164" width="900" height="1" fill="white"/>
    <rect x="0" y="168" width="900" height="1" fill="white"/>
    <rect x="0" y="172" width="900" height="1" fill="white"/>
    <rect x="0" y="176" width="900" height="1" fill="white"/>
    <rect x="0" y="180" width="900" height="1" fill="white"/>
    <rect x="0" y="184" width="900" height="1" fill="white"/>
    <rect x="0" y="188" width="900" height="1" fill="white"/>
    <rect x="0" y="192" width="900" height="1" fill="white"/>
    <rect x="0" y="196" width="900" height="1" fill="white"/>
    <rect x="0" y="200" width="900" height="1" fill="white"/>
    <rect x="0" y="204" width="900" height="1" fill="white"/>
    <rect x="0" y="208" width="900" height="1" fill="white"/>
    <rect x="0" y="212" width="900" height="1" fill="white"/>
    <rect x="0" y="216" width="900" height="1" fill="white"/>
    <rect x="0" y="220" width="900" height="1" fill="white"/>
    <rect x="0" y="224" width="900" height="1" fill="white"/>
    <rect x="0" y="228" width="900" height="1" fill="white"/>
    <rect x="0" y="232" width="900" height="1" fill="white"/>
    <rect x="0" y="236" width="900" height="1" fill="white"/>
    <rect x="0" y="240" width="900" height="1" fill="white"/>
    <rect x="0" y="244" width="900" height="1" fill="white"/>
    <rect x="0" y="248" width="900" height="1" fill="white"/>
    <rect x="0" y="252" width="900" height="1" fill="white"/>
    <rect x="0" y="256" width="900" height="1" fill="white"/>
    <rect x="0" y="260" width="900" height="1" fill="white"/>
    <rect x="0" y="264" width="900" height="1" fill="white"/>
    <rect x="0" y="268" width="900" height="1" fill="white"/>
    <rect x="0" y="272" width="900" height="1" fill="white"/>
    <rect x="0" y="276" width="900" height="1" fill="white"/>
  </g>

  <!-- Decorative corner brackets -->
  <!-- Top-left -->
  <polyline points="30,20 20,20 20,50" fill="none" stroke="white" stroke-width="2" opacity="0.5"/>
  <!-- Top-right -->
  <polyline points="870,20 880,20 880,50" fill="none" stroke="white" stroke-width="2" opacity="0.5"/>
  <!-- Bottom-left -->
  <polyline points="30,260 20,260 20,230" fill="none" stroke="white" stroke-width="2" opacity="0.5"/>
  <!-- Bottom-right -->
  <polyline points="870,260 880,260 880,230" fill="none" stroke="white" stroke-width="2" opacity="0.5"/>

  <!-- Border -->
  <rect x="1" y="1" width="898" height="278" rx="15" ry="15" fill="none" stroke="white" stroke-width="0.5" opacity="0.15"/>

  <!-- Top label -->
  <text x="450" y="38" font-family="'Courier New', monospace" font-size="11" fill="white" opacity="0.4" text-anchor="middle" letter-spacing="6">PENETRATION TESTING SUITE</text>

  <!-- Divider line top -->
  <line x1="50" y1="48" x2="850" y2="48" stroke="white" stroke-width="0.5" opacity="0.15"/>

  <!-- Main WHOAMI text -->
  <text
    x="450"
    y="160"
    font-family="'Courier New', Courier, monospace"
    font-size="100"
    font-weight="900"
    fill="white"
    text-anchor="middle"
    letter-spacing="18"
    filter="url(#glow)"
    opacity="0.97"
  >WHOAMI</text>

  <!-- Subtle underline accent -->
  <rect x="160" y="172" width="580" height="2" rx="1" fill="white" opacity="0.12"/>

  <!-- Divider line bottom -->
  <line x1="50" y1="210" x2="850" y2="210" stroke="white" stroke-width="0.5" opacity="0.15"/>

  <!-- Bottom info row -->
  <text x="60" y="235" font-family="'Courier New', monospace" font-size="11" fill="white" opacity="0.35" letter-spacing="2">v1.3</text>
  <text x="450" y="235" font-family="'Courier New', monospace" font-size="11" fill="white" opacity="0.35" text-anchor="middle" letter-spacing="3">by ruyynn</text>
  <text x="840" y="235" font-family="'Courier New', monospace" font-size="11" fill="white" opacity="0.35" text-anchor="end" letter-spacing="2">github.com/ruyynn</text>

  <!-- Blinking cursor effect (static) -->
  <rect x="776" y="220" width="8" height="14" fill="white" opacity="0.5"/>

  <!-- Bottom tagline -->
  <text x="450" y="258" font-family="'Courier New', monospace" font-size="10" fill="white" opacity="0.2" text-anchor="middle" letter-spacing="5">FOR EDUCATIONAL &amp; AUTHORIZED USE ONLY</text>
</svg>
